<?xml version="1.0" encoding="utf-8" standalone="no"?>
<!DOCTYPE svg PUBLIC "-//W3C//DTD SVG 1.1//EN"
  "http://www.w3.org/Graphics/SVG/1.1/DTD/svg11.dtd">
<svg xmlns:xlink="http://www.w3.org/1999/xlink" width="417.648125pt" height="326.10825pt" viewBox="0 0 417.648125 326.10825" xmlns="http://www.w3.org/2000/svg" version="1.1">
 <metadata>
  <rdf:RDF xmlns:dc="http://purl.org/dc/elements/1.1/" xmlns:cc="http://creativecommons.org/ns#" xmlns:rdf="http://www.w3.org/1999/02/22-rdf-syntax-ns#">
   <cc:Work>
    <dc:type rdf:resource="http://purl.org/dc/dcmitype/StillImage"/>
    <dc:date>2026-05-25T14:47:18.894790</dc:date>
    <dc:format>image/svg+xml</dc:format>
    <dc:creator>
     <cc:Agent>
      <dc:title>Matplotlib v3.10.9, https://matplotlib.org/</dc:title>
     </cc:Agent>
    </dc:creator>
   </cc:Work>
  </rdf:RDF>
 </metadata>
 <defs>
  <style type="text/css">*{stroke-linejoin: round; stroke-linecap: butt}</style>
 </defs>
 <g id="figure_1">
  <g id="patch_1">
   <path d="M 0 326.10825 
L 417.648125 326.10825 
L 417.648125 0 
L 0 0 
z
" style="fill: #ffffff"/>
  </g>
  <g id="axes_1">
   <g id="patch_2">
    <path d="M 53.328125 288.430125 
L 410.448125 288.430125 
L 410.448125 22.318125 
L 53.328125 22.318125 
z
" style="fill: #ffffff"/>
   </g>
   <g id="matplotlib.axis_1">
    <g id="xtick_1">
     <g id="line2d_1">
      <defs>
       <path id="mffa02d00fd" d="M 0 0 
L 0 3.5 
" style="stroke: #000000; stroke-width: 0.8"/>
      </defs>
      <g>
       <use xlink:href="#mffa02d00fd" x="77.58563" y="288.430125" style="stroke: #000000; stroke-width: 0.8"/>
      </g>
     </g>
     <g id="text_1">
      <!-- 25 -->
      <g transform="translate(71.22313 303.028562) scale(0.1 -0.1)">
       <defs>
        <path id="DejaVuSans-32" d="M 1228 531 
L 3431 531 
L 3431 0 
L 469 0 
L 469 531 
Q 828 903 1448 1529 
Q 2069 2156 2228 2338 
Q 2531 2678 2651 2914 
Q 2772 3150 2772 3378 
Q 2772 3750 2511 3984 
Q 2250 4219 1831 4219 
Q 1534 4219 1204 4116 
Q 875 4013 500 3803 
L 500 4441 
Q 881 4594 1212 4672 
Q 1544 4750 1819 4750 
Q 2544 4750 2975 4387 
Q 3406 4025 3406 3419 
Q 3406 3131 3298 2873 
Q 3191 2616 2906 2266 
Q 2828 2175 2409 1742 
Q 1991 1309 1228 531 
z
" transform="scale(0.015625)"/>
        <path id="DejaVuSans-35" d="M 691 4666 
L 3169 4666 
L 3169 4134 
L 1269 4134 
L 1269 2991 
Q 1406 3038 1543 3061 
Q 1681 3084 1819 3084 
Q 2600 3084 3056 2656 
Q 3513 2228 3513 1497 
Q 3513 744 3044 326 
Q 2575 -91 1722 -91 
Q 1428 -91 1123 -41 
Q 819 9 494 109 
L 494 744 
Q 775 591 1075 516 
Q 1375 441 1709 441 
Q 2250 441 2565 725 
Q 2881 1009 2881 1497 
Q 2881 1984 2565 2268 
Q 2250 2553 1709 2553 
Q 1456 2553 1204 2497 
Q 953 2441 691 2322 
L 691 4666 
z
" transform="scale(0.015625)"/>
       </defs>
       <use xlink:href="#DejaVuSans-32"/>
       <use xlink:href="#DejaVuSans-35" transform="translate(63.623047 0)"/>
      </g>
     </g>
    </g>
    <g id="xtick_2">
     <g id="line2d_2">
      <g>
       <use xlink:href="#mffa02d00fd" x="128.666976" y="288.430125" style="stroke: #000000; stroke-width: 0.8"/>
      </g>
     </g>
     <g id="text_2">
      <!-- 30 -->
      <g transform="translate(122.304476 303.028562) scale(0.1 -0.1)">
       <defs>
        <path id="DejaVuSans-33" d="M 2597 2516 
Q 3050 2419 3304 2112 
Q 3559 1806 3559 1356 
Q 3559 666 3084 287 
Q 2609 -91 1734 -91 
Q 1441 -91 1130 -33 
Q 819 25 488 141 
L 488 750 
Q 750 597 1062 519 
Q 1375 441 1716 441 
Q 2309 441 2620 675 
Q 2931 909 2931 1356 
Q 2931 1769 2642 2001 
Q 2353 2234 1838 2234 
L 1294 2234 
L 1294 2753 
L 1863 2753 
Q 2328 2753 2575 2939 
Q 2822 3125 2822 3475 
Q 2822 3834 2567 4026 
Q 2313 4219 1838 4219 
Q 1578 4219 1281 4162 
Q 984 4106 628 3988 
L 628 4550 
Q 988 4650 1302 4700 
Q 1616 4750 1894 4750 
Q 2613 4750 3031 4423 
Q 3450 4097 3450 3541 
Q 3450 3153 3228 2886 
Q 3006 2619 2597 2516 
z
" transform="scale(0.015625)"/>
        <path id="DejaVuSans-30" d="M 2034 4250 
Q 1547 4250 1301 3770 
Q 1056 3291 1056 2328 
Q 1056 1369 1301 889 
Q 1547 409 2034 409 
Q 2525 409 2770 889 
Q 3016 1369 3016 2328 
Q 3016 3291 2770 3770 
Q 2525 4250 2034 4250 
z
M 2034 4750 
Q 2819 4750 3233 4129 
Q 3647 3509 3647 2328 
Q 3647 1150 3233 529 
Q 2819 -91 2034 -91 
Q 1250 -91 836 529 
Q 422 1150 422 2328 
Q 422 3509 836 4129 
Q 1250 4750 2034 4750 
z
" transform="scale(0.015625)"/>
       </defs>
       <use xlink:href="#DejaVuSans-33"/>
       <use xlink:href="#DejaVuSans-30" transform="translate(63.623047 0)"/>
      </g>
     </g>
    </g>
    <g id="xtick_3">
     <g id="line2d_3">
      <g>
       <use xlink:href="#mffa02d00fd" x="179.748322" y="288.430125" style="stroke: #000000; stroke-width: 0.8"/>
      </g>
     </g>
     <g id="text_3">
      <!-- 35 -->
      <g transform="translate(173.385822 303.028562) scale(0.1 -0.1)">
       <use xlink:href="#DejaVuSans-33"/>
       <use xlink:href="#DejaVuSans-35" transform="translate(63.623047 0)"/>
      </g>
     </g>
    </g>
    <g id="xtick_4">
     <g id="line2d_4">
      <g>
       <use xlink:href="#mffa02d00fd" x="230.829668" y="288.430125" style="stroke: #000000; stroke-width: 0.8"/>
      </g>
     </g>
     <g id="text_4">
      <!-- 40 -->
      <g transform="translate(224.467168 303.028562) scale(0.1 -0.1)">
       <defs>
        <path id="DejaVuSans-34" d="M 2419 4116 
L 825 1625 
L 2419 1625 
L 2419 4116 
z
M 2253 4666 
L 3047 4666 
L 3047 1625 
L 3713 1625 
L 3713 1100 
L 3047 1100 
L 3047 0 
L 2419 0 
L 2419 1100 
L 313 1100 
L 313 1709 
L 2253 4666 
z
" transform="scale(0.015625)"/>
       </defs>
       <use xlink:href="#DejaVuSans-34"/>
       <use xlink:href="#DejaVuSans-30" transform="translate(63.623047 0)"/>
      </g>
     </g>
    </g>
    <g id="xtick_5">
     <g id="line2d_5">
      <g>
       <use xlink:href="#mffa02d00fd" x="281.911015" y="288.430125" style="stroke: #000000; stroke-width: 0.8"/>
      </g>
     </g>
     <g id="text_5">
      <!-- 45 -->
      <g transform="translate(275.548515 303.028562) scale(0.1 -0.1)">
       <use xlink:href="#DejaVuSans-34"/>
       <use xlink:href="#DejaVuSans-35" transform="translate(63.623047 0)"/>
      </g>
     </g>
    </g>
    <g id="xtick_6">
     <g id="line2d_6">
      <g>
       <use xlink:href="#mffa02d00fd" x="332.992361" y="288.430125" style="stroke: #000000; stroke-width: 0.8"/>
      </g>
     </g>
     <g id="text_6">
      <!-- 50 -->
      <g transform="translate(326.629861 303.028562) scale(0.1 -0.1)">
       <use xlink:href="#DejaVuSans-35"/>
       <use xlink:href="#DejaVuSans-30" transform="translate(63.623047 0)"/>
      </g>
     </g>
    </g>
    <g id="xtick_7">
     <g id="line2d_7">
      <g>
       <use xlink:href="#mffa02d00fd" x="384.073707" y="288.430125" style="stroke: #000000; stroke-width: 0.8"/>
      </g>
     </g>
     <g id="text_7">
      <!-- 55 -->
      <g transform="translate(377.711207 303.028562) scale(0.1 -0.1)">
       <use xlink:href="#DejaVuSans-35"/>
       <use xlink:href="#DejaVuSans-35" transform="translate(63.623047 0)"/>
      </g>
     </g>
    </g>
    <g id="text_8">
     <!-- 2$\theta$ (degree) -->
     <g transform="translate(202.488125 316.80825) scale(0.1 -0.1)">
      <defs>
       <path id="DejaVuSans-Oblique-3b8" d="M 2913 2219 
L 925 2219 
Q 791 1284 928 888 
Q 1100 400 1566 400 
Q 2034 400 2391 891 
Q 2703 1322 2913 2219 
z
M 3009 2750 
Q 3094 3638 2984 3950 
Q 2813 4444 2353 4444 
Q 1875 4444 1525 3956 
Q 1250 3563 1034 2750 
L 3009 2750 
z
M 2444 4913 
Q 3194 4913 3494 4250 
Q 3794 3591 3566 2422 
Q 3341 1256 2781 594 
Q 2225 -72 1475 -72 
Q 722 -72 425 594 
Q 128 1256 353 2422 
Q 581 3591 1134 4250 
Q 1691 4913 2444 4913 
z
" transform="scale(0.015625)"/>
       <path id="DejaVuSans-20" transform="scale(0.015625)"/>
       <path id="DejaVuSans-28" d="M 1984 4856 
Q 1566 4138 1362 3434 
Q 1159 2731 1159 2009 
Q 1159 1288 1364 580 
Q 1569 -128 1984 -844 
L 1484 -844 
Q 1016 -109 783 600 
Q 550 1309 550 2009 
Q 550 2706 781 3412 
Q 1013 4119 1484 4856 
L 1984 4856 
z
" transform="scale(0.015625)"/>
       <path id="DejaVuSans-64" d="M 2906 2969 
L 2906 4863 
L 3481 4863 
L 3481 0 
L 2906 0 
L 2906 525 
Q 2725 213 2448 61 
Q 2172 -91 1784 -91 
Q 1150 -91 751 415 
Q 353 922 353 1747 
Q 353 2572 751 3078 
Q 1150 3584 1784 3584 
Q 2172 3584 2448 3432 
Q 2725 3281 2906 2969 
z
M 947 1747 
Q 947 1113 1208 752 
Q 1469 391 1925 391 
Q 2381 391 2643 752 
Q 2906 1113 2906 1747 
Q 2906 2381 2643 2742 
Q 2381 3103 1925 3103 
Q 1469 3103 1208 2742 
Q 947 2381 947 1747 
z
" transform="scale(0.015625)"/>
       <path id="DejaVuSans-65" d="M 3597 1894 
L 3597 1613 
L 953 1613 
Q 991 1019 1311 708 
Q 1631 397 2203 397 
Q 2534 397 2845 478 
Q 3156 559 3463 722 
L 3463 178 
Q 3153 47 2828 -22 
Q 2503 -91 2169 -91 
Q 1331 -91 842 396 
Q 353 884 353 1716 
Q 353 2575 817 3079 
Q 1281 3584 2069 3584 
Q 2775 3584 3186 3129 
Q 3597 2675 3597 1894 
z
M 3022 2063 
Q 3016 2534 2758 2815 
Q 2500 3097 2075 3097 
Q 1594 3097 1305 2825 
Q 1016 2553 972 2059 
L 3022 2063 
z
" transform="scale(0.015625)"/>
       <path id="DejaVuSans-67" d="M 2906 1791 
Q 2906 2416 2648 2759 
Q 2391 3103 1925 3103 
Q 1463 3103 1205 2759 
Q 947 2416 947 1791 
Q 947 1169 1205 825 
Q 1463 481 1925 481 
Q 2391 481 2648 825 
Q 2906 1169 2906 1791 
z
M 3481 434 
Q 3481 -459 3084 -895 
Q 2688 -1331 1869 -1331 
Q 1566 -1331 1297 -1286 
Q 1028 -1241 775 -1147 
L 775 -588 
Q 1028 -725 1275 -790 
Q 1522 -856 1778 -856 
Q 2344 -856 2625 -561 
Q 2906 -266 2906 331 
L 2906 616 
Q 2728 306 2450 153 
Q 2172 0 1784 0 
Q 1141 0 747 490 
Q 353 981 353 1791 
Q 353 2603 747 3093 
Q 1141 3584 1784 3584 
Q 2172 3584 2450 3431 
Q 2728 3278 2906 2969 
L 2906 3500 
L 3481 3500 
L 3481 434 
z
" transform="scale(0.015625)"/>
       <path id="DejaVuSans-72" d="M 2631 2963 
Q 2534 3019 2420 3045 
Q 2306 3072 2169 3072 
Q 1681 3072 1420 2755 
Q 1159 2438 1159 1844 
L 1159 0 
L 581 0 
L 581 3500 
L 1159 3500 
L 1159 2956 
Q 1341 3275 1631 3429 
Q 1922 3584 2338 3584 
Q 2397 3584 2469 3576 
Q 2541 3569 2628 3553 
L 2631 2963 
z
" transform="scale(0.015625)"/>
       <path id="DejaVuSans-29" d="M 513 4856 
L 1013 4856 
Q 1481 4119 1714 3412 
Q 1947 2706 1947 2009 
Q 1947 1309 1714 600 
Q 1481 -109 1013 -844 
L 513 -844 
Q 928 -128 1133 580 
Q 1338 1288 1338 2009 
Q 1338 2731 1133 3434 
Q 928 4138 513 4856 
z
" transform="scale(0.015625)"/>
      </defs>
      <use xlink:href="#DejaVuSans-32" transform="translate(0 0.234375)"/>
      <use xlink:href="#DejaVuSans-Oblique-3b8" transform="translate(63.623047 0.234375)"/>
      <use xlink:href="#DejaVuSans-20" transform="translate(124.804688 0.234375)"/>
      <use xlink:href="#DejaVuSans-28" transform="translate(156.591797 0.234375)"/>
      <use xlink:href="#DejaVuSans-64" transform="translate(195.605469 0.234375)"/>
      <use xlink:href="#DejaVuSans-65" transform="translate(259.082031 0.234375)"/>
      <use xlink:href="#DejaVuSans-67" transform="translate(320.605469 0.234375)"/>
      <use xlink:href="#DejaVuSans-72" transform="translate(384.082031 0.234375)"/>
      <use xlink:href="#DejaVuSans-65" transform="translate(425.195312 0.234375)"/>
      <use xlink:href="#DejaVuSans-65" transform="translate(486.71875 0.234375)"/>
      <use xlink:href="#DejaVuSans-29" transform="translate(548.242188 0.234375)"/>
     </g>
    </g>
   </g>
   <g id="matplotlib.axis_2">
    <g id="ytick_1">
     <g id="line2d_8">
      <defs>
       <path id="mebebcaaff1" d="M 0 0 
L -3.5 0 
" style="stroke: #000000; stroke-width: 0.8"/>
      </defs>
      <g>
       <use xlink:href="#mebebcaaff1" x="53.328125" y="276.334125" style="stroke: #000000; stroke-width: 0.8"/>
      </g>
     </g>
     <g id="text_9">
      <!-- 0 -->
      <g transform="translate(39.965625 280.133344) scale(0.1 -0.1)">
       <use xlink:href="#DejaVuSans-30"/>
      </g>
     </g>
    </g>
    <g id="ytick_2">
     <g id="line2d_9">
      <g>
       <use xlink:href="#mebebcaaff1" x="53.328125" y="222.366145" style="stroke: #000000; stroke-width: 0.8"/>
      </g>
     </g>
     <g id="text_10">
      <!-- 1000 -->
      <g transform="translate(20.878125 226.165364) scale(0.1 -0.1)">
       <defs>
        <path id="DejaVuSans-31" d="M 794 531 
L 1825 531 
L 1825 4091 
L 703 3866 
L 703 4441 
L 1819 4666 
L 2450 4666 
L 2450 531 
L 3481 531 
L 3481 0 
L 794 0 
L 794 531 
z
" transform="scale(0.015625)"/>
       </defs>
       <use xlink:href="#DejaVuSans-31"/>
       <use xlink:href="#DejaVuSans-30" transform="translate(63.623047 0)"/>
       <use xlink:href="#DejaVuSans-30" transform="translate(127.246094 0)"/>
       <use xlink:href="#DejaVuSans-30" transform="translate(190.869141 0)"/>
      </g>
     </g>
    </g>
    <g id="ytick_3">
     <g id="line2d_10">
      <g>
       <use xlink:href="#mebebcaaff1" x="53.328125" y="168.398166" style="stroke: #000000; stroke-width: 0.8"/>
      </g>
     </g>
     <g id="text_11">
      <!-- 2000 -->
      <g transform="translate(20.878125 172.197384) scale(0.1 -0.1)">
       <use xlink:href="#DejaVuSans-32"/>
       <use xlink:href="#DejaVuSans-30" transform="translate(63.623047 0)"/>
       <use xlink:href="#DejaVuSans-30" transform="translate(127.246094 0)"/>
       <use xlink:href="#DejaVuSans-30" transform="translate(190.869141 0)"/>
      </g>
     </g>
    </g>
    <g id="ytick_4">
     <g id="line2d_11">
      <g>
       <use xlink:href="#mebebcaaff1" x="53.328125" y="114.430186" style="stroke: #000000; stroke-width: 0.8"/>
      </g>
     </g>
     <g id="text_12">
      <!-- 3000 -->
      <g transform="translate(20.878125 118.229405) scale(0.1 -0.1)">
       <use xlink:href="#DejaVuSans-33"/>
       <use xlink:href="#DejaVuSans-30" transform="translate(63.623047 0)"/>
       <use xlink:href="#DejaVuSans-30" transform="translate(127.246094 0)"/>
       <use xlink:href="#DejaVuSans-30" transform="translate(190.869141 0)"/>
      </g>
     </g>
    </g>
    <g id="ytick_5">
     <g id="line2d_12">
      <g>
       <use xlink:href="#mebebcaaff1" x="53.328125" y="60.462206" style="stroke: #000000; stroke-width: 0.8"/>
      </g>
     </g>
     <g id="text_13">
      <!-- 4000 -->
      <g transform="translate(20.878125 64.261425) scale(0.1 -0.1)">
       <use xlink:href="#DejaVuSans-34"/>
       <use xlink:href="#DejaVuSans-30" transform="translate(63.623047 0)"/>
       <use xlink:href="#DejaVuSans-30" transform="translate(127.246094 0)"/>
       <use xlink:href="#DejaVuSans-30" transform="translate(190.869141 0)"/>
      </g>
     </g>
    </g>
    <g id="text_14">
     <!-- intensity (a.u.) -->
     <g transform="translate(14.798438 191.95225) rotate(-90) scale(0.1 -0.1)">
      <defs>
       <path id="DejaVuSans-69" d="M 603 3500 
L 1178 3500 
L 1178 0 
L 603 0 
L 603 3500 
z
M 603 4863 
L 1178 4863 
L 1178 4134 
L 603 4134 
L 603 4863 
z
" transform="scale(0.015625)"/>
       <path id="DejaVuSans-6e" d="M 3513 2113 
L 3513 0 
L 2938 0 
L 2938 2094 
Q 2938 2591 2744 2837 
Q 2550 3084 2163 3084 
Q 1697 3084 1428 2787 
Q 1159 2491 1159 1978 
L 1159 0 
L 581 0 
L 581 3500 
L 1159 3500 
L 1159 2956 
Q 1366 3272 1645 3428 
Q 1925 3584 2291 3584 
Q 2894 3584 3203 3211 
Q 3513 2838 3513 2113 
z
" transform="scale(0.015625)"/>
       <path id="DejaVuSans-74" d="M 1172 4494 
L 1172 3500 
L 2356 3500 
L 2356 3053 
L 1172 3053 
L 1172 1153 
Q 1172 725 1289 603 
Q 1406 481 1766 481 
L 2356 481 
L 2356 0 
L 1766 0 
Q 1100 0 847 248 
Q 594 497 594 1153 
L 594 3053 
L 172 3053 
L 172 3500 
L 594 3500 
L 594 4494 
L 1172 4494 
z
" transform="scale(0.015625)"/>
       <path id="DejaVuSans-73" d="M 2834 3397 
L 2834 2853 
Q 2591 2978 2328 3040 
Q 2066 3103 1784 3103 
Q 1356 3103 1142 2972 
Q 928 2841 928 2578 
Q 928 2378 1081 2264 
Q 1234 2150 1697 2047 
L 1894 2003 
Q 2506 1872 2764 1633 
Q 3022 1394 3022 966 
Q 3022 478 2636 193 
Q 2250 -91 1575 -91 
Q 1294 -91 989 -36 
Q 684 19 347 128 
L 347 722 
Q 666 556 975 473 
Q 1284 391 1588 391 
Q 1994 391 2212 530 
Q 2431 669 2431 922 
Q 2431 1156 2273 1281 
Q 2116 1406 1581 1522 
L 1381 1569 
Q 847 1681 609 1914 
Q 372 2147 372 2553 
Q 372 3047 722 3315 
Q 1072 3584 1716 3584 
Q 2034 3584 2315 3537 
Q 2597 3491 2834 3397 
z
" transform="scale(0.015625)"/>
       <path id="DejaVuSans-79" d="M 2059 -325 
Q 1816 -950 1584 -1140 
Q 1353 -1331 966 -1331 
L 506 -1331 
L 506 -850 
L 844 -850 
Q 1081 -850 1212 -737 
Q 1344 -625 1503 -206 
L 1606 56 
L 191 3500 
L 800 3500 
L 1894 763 
L 2988 3500 
L 3597 3500 
L 2059 -325 
z
" transform="scale(0.015625)"/>
       <path id="DejaVuSans-61" d="M 2194 1759 
Q 1497 1759 1228 1600 
Q 959 1441 959 1056 
Q 959 750 1161 570 
Q 1363 391 1709 391 
Q 2188 391 2477 730 
Q 2766 1069 2766 1631 
L 2766 1759 
L 2194 1759 
z
M 3341 1997 
L 3341 0 
L 2766 0 
L 2766 531 
Q 2569 213 2275 61 
Q 1981 -91 1556 -91 
Q 1019 -91 701 211 
Q 384 513 384 1019 
Q 384 1609 779 1909 
Q 1175 2209 1959 2209 
L 2766 2209 
L 2766 2266 
Q 2766 2663 2505 2880 
Q 2244 3097 1772 3097 
Q 1472 3097 1187 3025 
Q 903 2953 641 2809 
L 641 3341 
Q 956 3463 1253 3523 
Q 1550 3584 1831 3584 
Q 2591 3584 2966 3190 
Q 3341 2797 3341 1997 
z
" transform="scale(0.015625)"/>
       <path id="DejaVuSans-2e" d="M 684 794 
L 1344 794 
L 1344 0 
L 684 0 
L 684 794 
z
" transform="scale(0.015625)"/>
       <path id="DejaVuSans-75" d="M 544 1381 
L 544 3500 
L 1119 3500 
L 1119 1403 
Q 1119 906 1312 657 
Q 1506 409 1894 409 
Q 2359 409 2629 706 
Q 2900 1003 2900 1516 
L 2900 3500 
L 3475 3500 
L 3475 0 
L 2900 0 
L 2900 538 
Q 2691 219 2414 64 
Q 2138 -91 1772 -91 
Q 1169 -91 856 284 
Q 544 659 544 1381 
z
M 1991 3584 
L 1991 3584 
z
" transform="scale(0.015625)"/>
      </defs>
      <use xlink:href="#DejaVuSans-69"/>
      <use xlink:href="#DejaVuSans-6e" transform="translate(27.783203 0)"/>
      <use xlink:href="#DejaVuSans-74" transform="translate(91.162109 0)"/>
      <use xlink:href="#DejaVuSans-65" transform="translate(130.371094 0)"/>
      <use xlink:href="#DejaVuSans-6e" transform="translate(191.894531 0)"/>
      <use xlink:href="#DejaVuSans-73" transform="translate(255.273438 0)"/>
      <use xlink:href="#DejaVuSans-69" transform="translate(307.373047 0)"/>
      <use xlink:href="#DejaVuSans-74" transform="translate(335.15625 0)"/>
      <use xlink:href="#DejaVuSans-79" transform="translate(374.365234 0)"/>
      <use xlink:href="#DejaVuSans-20" transform="translate(433.544922 0)"/>
      <use xlink:href="#DejaVuSans-28" transform="translate(465.332031 0)"/>
      <use xlink:href="#DejaVuSans-61" transform="translate(504.345703 0)"/>
      <use xlink:href="#DejaVuSans-2e" transform="translate(565.625 0)"/>
      <use xlink:href="#DejaVuSans-75" transform="translate(597.412109 0)"/>
      <use xlink:href="#DejaVuSans-2e" transform="translate(660.791016 0)"/>
      <use xlink:href="#DejaVuSans-29" transform="translate(692.578125 0)"/>
     </g>
    </g>
   </g>
   <g id="line2d_13">
    <path d="M 69.560852 275.580334 
L 69.769468 275.580334 
L 69.978085 275.580334 
L 70.186803 275.580334 
L 70.395419 275.580334 
L 70.604036 275.580334 
L 70.812754 275.580334 
L 71.02137 275.580334 
L 71.229986 275.580334 
L 71.438705 275.580334 
L 71.647321 275.580334 
L 71.855937 275.580334 
L 72.064553 275.580334 
L 72.273272 275.580334 
L 72.481888 275.580334 
L 72.690504 275.580334 
L 72.899223 275.580334 
L 73.107839 275.580334 
L 73.316455 275.580334 
L 73.525173 275.580334 
L 73.73379 275.580333 
L 73.942406 275.580332 
L 74.151022 275.580327 
L 74.35974 275.580308 
L 74.568357 275.580245 
L 74.776973 275.580039 
L 74.985691 275.579404 
L 75.194307 275.577551 
L 75.402924 275.572415 
L 75.611642 275.558896 
L 75.820258 275.525184 
L 76.028875 275.445435 
L 76.237491 275.266596 
L 76.446209 274.886296 
L 76.654825 274.121122 
L 76.863442 272.663255 
L 77.07216 270.034033 
L 77.280776 265.557032 
L 77.489392 258.35719 
L 77.698111 247.434943 
L 77.906727 231.85969 
L 78.115343 211.00599 
L 78.323959 184.896964 
L 78.532678 154.479926 
L 78.741294 121.838909 
L 78.94991 90.000669 
L 79.158629 62.576218 
L 79.367245 43.143403 
L 79.575861 34.414125 
L 79.784579 37.669775 
L 79.993196 52.427353 
L 80.201812 76.565313 
L 80.410428 106.822785 
L 80.619146 139.535021 
L 80.827763 171.291314 
L 81.036379 199.56735 
L 81.245097 222.912215 
L 81.453713 240.876724 
L 81.66233 253.838525 
L 81.871048 262.632552 
L 82.079664 268.247125 
L 82.288281 271.631336 
L 82.496897 273.558367 
L 82.705615 274.59633 
L 82.914231 275.124862 
L 83.122848 275.379877 
L 83.331566 275.496488 
L 83.540182 275.546974 
L 83.748798 275.567714 
L 83.957517 275.575797 
L 84.166133 275.578782 
L 84.374749 275.579829 
L 84.583365 275.580178 
L 84.792084 275.580288 
L 85.0007 275.580321 
L 85.209316 275.58033 
L 85.418035 275.580333 
L 85.626651 275.580334 
L 85.835267 275.580334 
L 86.043985 275.580334 
L 86.252602 275.580334 
L 86.461218 275.580334 
L 86.669834 275.580334 
L 86.878552 275.580334 
L 87.087169 275.580334 
L 87.295785 275.580334 
L 87.504503 275.580334 
L 87.713119 275.580334 
L 87.921736 275.580334 
L 88.130454 275.580334 
L 88.33907 275.580334 
L 88.547687 275.580334 
L 88.756303 275.580334 
L 88.965021 275.580334 
L 89.173637 275.580334 
L 89.382254 275.580334 
L 89.590972 275.580334 
" clip-path="url(#p03c69ab796)" style="fill: none; stroke-dasharray: 5.55,2.4; stroke-dashoffset: 0; stroke: #00bfbf; stroke-width: 1.5"/>
   </g>
   <g id="line2d_14">
    <path d="M 69.560852 276.334125 
L 69.769468 276.334125 
L 69.978085 276.334125 
L 70.186803 276.334125 
L 70.395419 276.334125 
L 70.604036 276.334125 
L 70.812754 276.334125 
L 71.02137 276.334125 
L 71.229986 276.334125 
L 71.438705 276.334125 
L 71.647321 276.334125 
L 71.855937 276.334125 
L 72.064553 276.334125 
L 72.273272 276.334125 
L 72.481888 276.334125 
L 72.690504 276.334125 
L 72.899223 276.334125 
L 73.107839 276.334125 
L 73.316455 276.334125 
L 73.525173 276.334125 
L 73.73379 276.334125 
L 73.942406 276.334125 
L 74.151022 276.334125 
L 74.35974 276.334125 
L 74.568357 276.334125 
L 74.776973 276.334125 
L 74.985691 276.334125 
L 75.194307 276.334125 
L 75.402924 276.334125 
L 75.611642 276.334125 
L 75.820258 276.334125 
L 76.028875 275.848413 
L 76.237491 274.790641 
L 76.446209 273.311918 
L 76.654825 271.736053 
L 76.863442 269.366859 
L 77.07216 266.258303 
L 77.280776 261.930071 
L 77.489392 256.333592 
L 77.698111 248.659345 
L 77.906727 236.721628 
L 78.115343 217.616963 
L 78.323959 187.643147 
L 78.532678 149.315088 
L 78.741294 113.253684 
L 78.94991 85.751602 
L 79.158629 63.133621 
L 79.367245 48.265443 
L 79.575861 41.972777 
L 79.784579 43.473086 
L 79.993196 51.541299 
L 80.201812 68.708514 
L 80.410428 98.44487 
L 80.619146 136.826898 
L 80.827763 173.341633 
L 81.036379 202.543706 
L 81.245097 227.676595 
L 81.453713 246.349516 
L 81.66233 257.812314 
L 81.871048 263.576095 
L 82.079664 266.992268 
L 82.288281 269.086225 
L 82.496897 270.170982 
L 82.705615 271.234151 
L 82.914231 272.351288 
L 83.122848 272.880174 
L 83.331566 273.182395 
L 83.540182 273.668107 
L 83.748798 274.024295 
L 83.957517 274.267151 
L 84.166133 274.715086 
L 84.374749 274.925561 
L 84.583365 275.103655 
L 84.792084 275.454447 
L 85.0007 275.400479 
L 85.209316 275.540796 
L 85.418035 275.610954 
L 85.626651 275.643335 
L 85.835267 275.648732 
L 86.043985 275.724287 
L 86.252602 275.729684 
L 86.461218 275.589367 
L 86.669834 275.621748 
L 86.878552 275.56778 
L 87.087169 275.627144 
L 87.295785 275.627144 
L 87.504503 275.675716 
L 87.713119 275.681112 
L 87.921736 275.745874 
L 88.130454 275.681112 
L 88.33907 275.681112 
L 88.547687 275.799842 
L 88.756303 275.751271 
L 88.965021 275.691906 
L 89.173637 275.691906 
L 89.382254 275.530002 
L 89.590972 275.535399 
" clip-path="url(#p03c69ab796)" style="fill: none; stroke: #bf00bf; stroke-width: 1.5; stroke-linecap: square"/>
   </g>
   <g id="line2d_15">
    <path d="M 302.202058 276.051895 
L 302.410776 276.051895 
L 302.619392 276.051895 
L 302.828009 276.051895 
L 303.036727 276.051895 
L 303.245343 276.051895 
L 303.45396 276.051895 
L 303.662576 276.051895 
L 303.871294 276.051895 
L 304.07991 276.051895 
L 304.288527 276.051895 
L 304.497245 276.051895 
L 304.705861 276.051895 
L 304.914477 276.051895 
L 305.123196 276.051895 
L 305.331812 276.051895 
L 305.540428 276.051894 
L 305.749044 276.051891 
L 305.957763 276.051885 
L 306.166379 276.051866 
L 306.374995 276.051817 
L 306.583714 276.051692 
L 306.79233 276.051382 
L 307.000946 276.050649 
L 307.209664 276.048969 
L 307.418281 276.045269 
L 307.626897 276.037412 
L 307.835513 276.021344 
L 308.044231 275.989678 
L 308.252848 275.929656 
L 308.461464 275.820114 
L 308.670182 275.627627 
L 308.878798 275.302624 
L 309.087415 274.774851 
L 309.296133 273.950811 
L 309.504749 272.716556 
L 309.713366 270.94208 
L 309.921982 268.496817 
L 310.1307 265.269553 
L 310.339316 261.203605 
L 310.547933 256.318202 
L 310.756651 250.738058 
L 310.965267 244.717633 
L 311.173883 238.619336 
L 311.382602 232.892572 
L 311.591218 228.030558 
L 311.799834 224.486014 
L 312.00845 222.612787 
L 312.217169 222.605209 
L 312.425785 224.464081 
L 312.634401 227.996513 
L 312.84312 232.852359 
L 313.051736 238.571551 
L 313.260352 244.668739 
L 313.46907 250.694237 
L 313.677687 256.276199 
L 313.886303 261.167782 
L 314.094919 265.240475 
L 314.303637 268.474294 
L 314.512254 270.925394 
L 314.72087 272.704716 
L 314.929588 273.94325 
L 315.138204 274.769591 
L 315.346821 275.299325 
L 315.555539 275.62576 
L 315.764155 275.818961 
L 315.972772 275.929013 
L 316.181388 275.989333 
L 316.390106 276.021166 
L 316.598722 276.037324 
L 316.807339 276.045227 
L 317.016057 276.048951 
L 317.224673 276.05064 
L 317.433289 276.051379 
L 317.642008 276.05169 
L 317.850624 276.051816 
L 318.05924 276.051866 
L 318.267856 276.051885 
L 318.476575 276.051891 
L 318.685191 276.051894 
L 318.893807 276.051895 
L 319.102526 276.051895 
L 319.311142 276.051895 
L 319.519758 276.051895 
L 319.728476 276.051895 
L 319.937093 276.051895 
L 320.145709 276.051895 
L 320.354325 276.051895 
L 320.563043 276.051895 
L 320.77166 276.051895 
L 320.980276 276.051895 
L 321.188994 276.051895 
L 321.397611 276.051895 
L 321.606227 276.051895 
L 321.814945 276.051895 
L 322.023561 276.051895 
L 322.232178 276.051895 
" clip-path="url(#p03c69ab796)" style="fill: none; stroke-dasharray: 5.55,2.4; stroke-dashoffset: 0; stroke: #00bfbf; stroke-width: 1.5"/>
   </g>
   <g id="line2d_16">
    <path d="M 302.202058 276.242379 
L 302.410776 276.253173 
L 302.619392 276.269363 
L 302.828009 276.323331 
L 303.036727 276.323331 
L 303.245343 276.323331 
L 303.45396 276.334125 
L 303.662576 276.334125 
L 303.871294 276.334125 
L 304.07991 276.334125 
L 304.288527 276.334125 
L 304.497245 276.334125 
L 304.705861 276.334125 
L 304.914477 276.334125 
L 305.123196 276.334125 
L 305.331812 276.334125 
L 305.540428 276.334125 
L 305.749044 276.334125 
L 305.957763 276.334125 
L 306.166379 276.334125 
L 306.374995 276.334125 
L 306.583714 276.334125 
L 306.79233 276.334125 
L 307.000946 276.334125 
L 307.209664 276.334125 
L 307.418281 276.334125 
L 307.626897 276.334125 
L 307.835513 276.334125 
L 308.044231 276.334125 
L 308.252848 276.334125 
L 308.461464 276.226189 
L 308.670182 276.102063 
L 308.878798 275.745874 
L 309.087415 275.109052 
L 309.296133 274.50461 
L 309.504749 273.754456 
L 309.713366 272.696683 
L 309.921982 271.163993 
L 310.1307 268.578926 
L 310.339316 264.347837 
L 310.547933 257.65041 
L 310.756651 249.128866 
L 310.965267 240.812401 
L 311.173883 235.205128 
L 311.382602 231.940065 
L 311.591218 229.171508 
L 311.799834 226.370569 
L 312.00845 223.50487 
L 312.217169 221.702339 
L 312.425785 222.54424 
L 312.634401 227.19628 
L 312.84312 234.293069 
L 313.051736 242.237155 
L 313.260352 247.725699 
L 313.46907 251.31457 
L 313.677687 254.396141 
L 313.886303 258.141519 
L 314.094919 262.388799 
L 314.303637 266.646873 
L 314.512254 269.895745 
L 314.72087 272.049067 
L 314.929588 273.495409 
L 315.138204 274.223977 
L 315.346821 274.979529 
L 315.555539 275.082068 
L 315.764155 275.438257 
L 315.972772 275.416669 
L 316.181388 275.454447 
L 316.390106 275.373495 
L 316.598722 275.486828 
L 316.807339 275.395082 
L 317.016057 275.411273 
L 317.224673 275.260162 
L 317.433289 275.260162 
L 317.642008 275.438257 
L 317.850624 275.519209 
L 318.05924 275.632541 
L 318.267856 275.7027 
L 318.476575 275.799842 
L 318.685191 275.826826 
L 318.893807 275.821429 
L 319.102526 275.907778 
L 319.311142 275.983333 
L 319.519758 275.983333 
L 319.728476 275.934762 
L 319.937093 275.799842 
L 320.145709 275.729684 
L 320.354325 275.772858 
L 320.563043 275.886191 
L 320.77166 275.886191 
L 320.980276 275.929365 
L 321.188994 275.929365 
L 321.397611 276.00492 
L 321.606227 275.98873 
L 321.814945 275.961746 
L 322.023561 276.096666 
L 322.232178 276.188411 
" clip-path="url(#p03c69ab796)" style="fill: none; stroke: #bf00bf; stroke-width: 1.5; stroke-linecap: square"/>
   </g>
   <g id="line2d_17">
    <path d="M 197.461392 272.718248 
L 197.670008 272.718248 
L 197.878624 272.718248 
L 198.087343 272.718248 
L 198.295959 272.718248 
L 198.504575 272.718248 
L 198.713294 272.718248 
L 198.92191 272.718248 
L 199.130526 272.718248 
L 199.339142 272.718248 
L 199.547861 272.718248 
L 199.756477 272.718248 
L 199.965093 272.718248 
L 200.173811 272.718248 
L 200.382428 272.718248 
L 200.591044 272.718248 
L 200.799762 272.718248 
L 201.008378 272.718248 
L 201.216995 272.718248 
L 201.425611 272.718248 
L 201.634329 272.718248 
L 201.842946 272.718248 
L 202.051562 272.718247 
L 202.26028 272.718245 
L 202.468896 272.718238 
L 202.677513 272.718212 
L 202.886231 272.718126 
L 203.094847 272.717857 
L 203.303463 272.717062 
L 203.51208 272.714848 
L 203.720798 272.70903 
L 203.929414 272.694632 
L 204.13803 272.661045 
L 204.346749 272.587201 
L 204.555365 272.434532 
L 204.763981 272.137522 
L 204.9727 271.594102 
L 205.181316 270.661608 
L 205.389932 269.160919 
L 205.598548 266.900968 
L 205.807267 263.722591 
L 206.015883 259.569709 
L 206.224499 254.548356 
L 206.433217 248.976738 
L 206.641834 243.393669 
L 206.85045 238.474168 
L 207.059168 234.910172 
L 207.267784 233.255539 
L 207.476401 233.776138 
L 207.685017 236.386831 
L 207.893735 240.674538 
L 208.102352 245.997153 
L 208.310968 251.651574 
L 208.519686 257.018254 
L 208.728302 261.654818 
L 208.936919 265.34752 
L 209.145637 268.076763 
L 209.354253 269.954324 
L 209.562869 271.162191 
L 209.771486 271.89001 
L 209.980204 272.301606 
L 210.18882 272.520031 
L 210.397436 272.629092 
L 210.606155 272.680351 
L 210.814771 272.703012 
L 211.023387 272.712457 
L 211.232106 272.716168 
L 211.440722 272.717541 
L 211.649338 272.718021 
L 211.857954 272.718179 
L 212.066673 272.718228 
L 212.275289 272.718243 
L 212.483905 272.718247 
L 212.692623 272.718248 
L 212.90124 272.718248 
L 213.109856 272.718248 
L 213.318574 272.718248 
L 213.52719 272.718248 
L 213.735807 272.718248 
L 213.944423 272.718248 
L 214.153141 272.718248 
L 214.361758 272.718248 
L 214.570374 272.718248 
L 214.779092 272.718248 
L 214.987708 272.718248 
L 215.196325 272.718248 
L 215.405043 272.718248 
L 215.613659 272.718248 
L 215.822275 272.718248 
L 216.030892 272.718248 
L 216.23961 272.718248 
L 216.448226 272.718248 
L 216.656842 272.718248 
L 216.865561 272.718248 
L 217.074177 272.718248 
L 217.282793 272.718248 
L 217.491512 272.718248 
" clip-path="url(#p03c69ab796)" style="fill: none; stroke-dasharray: 5.55,2.4; stroke-dashoffset: 0; stroke: #00bfbf; stroke-width: 1.5"/>
   </g>
   <g id="line2d_18">
    <path d="M 197.461392 270.894153 
L 197.670008 269.091622 
L 197.878624 267.958295 
L 198.087343 267.51036 
L 198.295959 266.997665 
L 198.504575 266.431001 
L 198.713294 266.026241 
L 198.92191 266.41481 
L 199.130526 266.981474 
L 199.339142 268.195754 
L 199.547861 269.992887 
L 199.756477 271.870973 
L 199.965093 273.063665 
L 200.173811 273.722075 
L 200.382428 274.520801 
L 200.591044 275.351908 
L 200.799762 276.134443 
L 201.008378 276.334125 
L 201.216995 276.334125 
L 201.425611 276.334125 
L 201.634329 276.334125 
L 201.842946 276.334125 
L 202.051562 276.334125 
L 202.26028 276.334125 
L 202.468896 276.334125 
L 202.677513 276.334125 
L 202.886231 276.334125 
L 203.094847 276.334125 
L 203.303463 276.334125 
L 203.51208 276.334125 
L 203.720798 276.285554 
L 203.929414 276.064285 
L 204.13803 275.902381 
L 204.346749 275.362701 
L 204.555365 274.952545 
L 204.763981 274.369691 
L 204.9727 273.490012 
L 205.181316 272.254146 
L 205.389932 270.548758 
L 205.598548 267.974485 
L 205.807267 263.775776 
L 206.015883 258.238661 
L 206.224499 251.908217 
L 206.433217 246.894592 
L 206.641834 242.895565 
L 206.85045 239.905739 
L 207.059168 237.137181 
L 207.267784 235.037827 
L 207.476401 234.185133 
L 207.685017 235.474968 
L 207.893735 239.187965 
L 208.102352 244.838412 
L 208.310968 251.33076 
L 208.519686 256.884065 
L 208.728302 261.293249 
L 208.936919 264.865929 
L 209.145637 268.514165 
L 209.354253 271.849386 
L 209.562869 274.407468 
L 209.771486 275.691906 
L 209.980204 276.226189 
L 210.18882 276.334125 
L 210.397436 276.334125 
L 210.606155 276.334125 
L 210.814771 276.334125 
L 211.023387 276.334125 
L 211.232106 276.334125 
L 211.440722 276.334125 
L 211.649338 276.312538 
L 211.857954 276.290951 
L 212.066673 276.220792 
L 212.275289 276.085872 
L 212.483905 275.923968 
L 212.692623 275.713493 
L 212.90124 275.200797 
L 213.109856 274.796038 
L 213.318574 274.170009 
L 213.52719 273.409061 
L 213.735807 271.75764 
L 213.944423 269.733841 
L 214.153141 267.348456 
L 214.361758 265.972273 
L 214.570374 265.065611 
L 214.779092 264.293869 
L 214.987708 263.549111 
L 215.196325 262.944669 
L 215.405043 262.847527 
L 215.613659 263.398 
L 215.822275 264.871326 
L 216.030892 266.797983 
L 216.23961 269.107813 
L 216.448226 270.489393 
L 216.656842 271.47161 
L 216.865561 272.443034 
L 217.074177 273.657313 
L 217.282793 274.574769 
L 217.491512 275.29794 
" clip-path="url(#p03c69ab796)" style="fill: none; stroke: #bf00bf; stroke-width: 1.5; stroke-linecap: square"/>
   </g>
   <g id="line2d_19">
    <path d="M 362.083698 276.043131 
L 362.292417 276.043131 
L 362.501033 276.043131 
L 362.709649 276.043131 
L 362.918368 276.043131 
L 363.126984 276.043131 
L 363.3356 276.043131 
L 363.544318 276.043131 
L 363.752935 276.043131 
L 363.961551 276.043131 
L 364.170167 276.043131 
L 364.378886 276.043131 
L 364.587502 276.043131 
L 364.796118 276.043131 
L 365.004836 276.043131 
L 365.213453 276.04313 
L 365.422069 276.043127 
L 365.630787 276.043121 
L 365.839403 276.043105 
L 366.04802 276.043064 
L 366.256636 276.042965 
L 366.465354 276.042733 
L 366.67397 276.042205 
L 366.882587 276.041049 
L 367.091305 276.038599 
L 367.299921 276.033589 
L 367.508537 276.023687 
L 367.717256 276.00478 
L 367.925872 275.96996 
L 368.134488 275.90804 
L 368.343104 275.801789 
L 368.551823 275.625807 
L 368.760439 275.345036 
L 368.969055 274.913136 
L 369.177774 274.272812 
L 369.38639 273.359959 
L 369.595006 272.107933 
L 369.803725 270.457444 
L 370.012341 268.372526 
L 370.220957 265.850094 
L 370.429573 262.936275 
L 370.638292 259.733001 
L 370.846908 256.405581 
L 371.055524 253.164072 
L 371.264242 250.248342 
L 371.472859 247.90354 
L 371.681475 246.338474 
L 371.890193 245.700496 
L 372.098809 246.051851 
L 372.307426 247.357945 
L 372.516042 249.49455 
L 372.72476 252.268216 
L 372.933376 255.439794 
L 373.141993 258.765782 
L 373.350711 262.025013 
L 373.559327 265.036252 
L 373.767943 267.680178 
L 373.976662 269.895509 
L 374.185278 271.669546 
L 374.393894 273.032282 
L 374.602511 274.037452 
L 374.811229 274.75055 
L 375.019845 275.23689 
L 375.228461 275.556507 
L 375.43718 275.758996 
L 375.645796 275.882552 
L 375.854412 275.955315 
L 376.063131 275.996675 
L 376.271747 276.019343 
L 376.480363 276.031344 
L 376.688979 276.03748 
L 376.897698 276.04051 
L 377.106314 276.041954 
L 377.31493 276.04262 
L 377.523648 276.042916 
L 377.732265 276.043044 
L 377.940881 276.043097 
L 378.149599 276.043118 
L 378.358215 276.043126 
L 378.566832 276.043129 
L 378.775448 276.04313 
L 378.984166 276.043131 
L 379.192782 276.043131 
L 379.401399 276.043131 
L 379.610117 276.043131 
L 379.818733 276.043131 
L 380.027349 276.043131 
L 380.236068 276.043131 
L 380.444684 276.043131 
L 380.6533 276.043131 
L 380.861917 276.043131 
L 381.070635 276.043131 
L 381.279251 276.043131 
L 381.487867 276.043131 
L 381.696586 276.043131 
L 381.905202 276.043131 
L 382.113818 276.043131 
" clip-path="url(#p03c69ab796)" style="fill: none; stroke-dasharray: 5.55,2.4; stroke-dashoffset: 0; stroke: #00bfbf; stroke-width: 1.5"/>
   </g>
   <g id="line2d_20">
    <path d="M 362.083698 275.999524 
L 362.292417 276.075079 
L 362.501033 276.215395 
L 362.709649 276.193808 
L 362.918368 276.193808 
L 363.126984 276.193808 
L 363.3356 276.199205 
L 363.544318 276.199205 
L 363.752935 276.312538 
L 363.961551 276.312538 
L 364.170167 276.312538 
L 364.378886 276.312538 
L 364.587502 276.312538 
L 364.796118 276.334125 
L 365.004836 276.334125 
L 365.213453 276.334125 
L 365.422069 276.334125 
L 365.630787 276.334125 
L 365.839403 276.334125 
L 366.04802 276.334125 
L 366.256636 276.334125 
L 366.465354 276.334125 
L 366.67397 276.334125 
L 366.882587 276.334125 
L 367.091305 276.334125 
L 367.299921 276.334125 
L 367.508537 276.334125 
L 367.717256 276.334125 
L 367.925872 276.334125 
L 368.134488 276.334125 
L 368.343104 276.334125 
L 368.551823 276.296347 
L 368.760439 276.12365 
L 368.969055 275.859207 
L 369.177774 275.324924 
L 369.38639 274.63953 
L 369.595006 273.889376 
L 369.803725 272.561763 
L 370.012341 270.413838 
L 370.220957 267.332266 
L 370.429573 263.155144 
L 370.638292 258.200884 
L 370.846908 253.959001 
L 371.055524 251.066317 
L 371.264242 249.382516 
L 371.472859 248.238395 
L 371.681475 247.115861 
L 371.890193 246.133644 
L 372.098809 245.98793 
L 372.307426 246.878402 
L 372.516042 249.619975 
L 372.72476 253.710748 
L 372.933376 257.51549 
L 373.141993 260.289445 
L 373.350711 262.378005 
L 373.559327 263.818951 
L 373.767943 265.556719 
L 373.976662 267.591312 
L 374.185278 269.884951 
L 374.393894 272.043671 
L 374.602511 273.463028 
L 374.811229 274.364294 
L 375.019845 274.974132 
L 375.228461 275.357305 
L 375.43718 275.486828 
L 375.645796 275.875397 
L 375.854412 276.010317 
L 376.063131 276.285554 
L 376.271747 276.285554 
L 376.480363 276.317935 
L 376.688979 276.334125 
L 376.897698 276.334125 
L 377.106314 276.334125 
L 377.31493 276.334125 
L 377.523648 276.334125 
L 377.732265 276.334125 
L 377.940881 276.334125 
L 378.149599 276.334125 
L 378.358215 276.334125 
L 378.566832 276.334125 
L 378.775448 276.334125 
L 378.984166 276.334125 
L 379.192782 276.334125 
L 379.401399 276.334125 
L 379.610117 276.334125 
L 379.818733 276.334125 
L 380.027349 276.334125 
L 380.236068 276.334125 
L 380.444684 276.317935 
L 380.6533 276.166824 
L 380.861917 275.923968 
L 381.070635 275.627144 
L 381.279251 275.16302 
L 381.487867 274.456039 
L 381.696586 273.549377 
L 381.905202 271.773831 
L 382.113818 269.41543 
" clip-path="url(#p03c69ab796)" style="fill: none; stroke: #bf00bf; stroke-width: 1.5; stroke-linecap: square"/>
   </g>
   <g id="line2d_21">
    <path d="M 374.185278 275.822726 
L 374.393894 275.822726 
L 374.602511 275.822726 
L 374.811229 275.822726 
L 375.019845 275.822726 
L 375.228461 275.822726 
L 375.43718 275.822726 
L 375.645796 275.822726 
L 375.854412 275.822726 
L 376.063131 275.822726 
L 376.271747 275.822726 
L 376.480363 275.822726 
L 376.688979 275.822726 
L 376.897698 275.822726 
L 377.106314 275.822725 
L 377.31493 275.822722 
L 377.523648 275.822716 
L 377.732265 275.8227 
L 377.940881 275.822662 
L 378.149599 275.822571 
L 378.358215 275.82236 
L 378.566832 275.821892 
L 378.775448 275.820883 
L 378.984166 275.818778 
L 379.192782 275.814528 
L 379.401399 275.806229 
L 379.610117 275.790536 
L 379.818733 275.761866 
L 380.027349 275.711194 
L 380.236068 275.624556 
L 380.444684 275.481531 
L 380.6533 275.253324 
L 380.861917 274.901666 
L 381.070635 274.378281 
L 381.279251 273.62756 
L 381.487867 272.589131 
L 381.696586 271.204997 
L 381.905202 269.432087 
L 382.113818 267.250133 
L 382.322537 264.67504 
L 382.531153 261.773571 
L 382.739769 258.660732 
L 382.948385 255.502085 
L 383.157104 252.499689 
L 383.36572 249.877809 
L 383.574336 247.847632 
L 383.783054 246.584638 
L 383.991671 246.20404 
L 384.200287 246.740029 
L 384.409005 248.144272 
L 384.617621 250.289349 
L 384.826238 252.991628 
L 385.034854 256.034931 
L 385.243572 259.200862 
L 385.452188 262.28805 
L 385.660805 265.140344 
L 385.869523 267.651633 
L 386.078139 269.763768 
L 386.286755 271.46793 
L 386.495474 272.789466 
L 386.70409 273.774504 
L 386.912706 274.482134 
L 387.121323 274.972238 
L 387.330041 275.299867 
L 387.538657 275.511085 
L 387.747273 275.642683 
L 387.955992 275.721935 
L 388.164608 275.768019 
L 388.373224 275.793945 
L 388.581943 275.808054 
L 388.790559 275.815474 
L 388.999175 275.819252 
L 389.207791 275.821113 
L 389.41651 275.822 
L 389.625126 275.822409 
L 389.833742 275.822592 
L 390.04246 275.822671 
L 390.251077 275.822704 
L 390.459693 275.822718 
L 390.668411 275.822723 
L 390.877027 275.822725 
L 391.085644 275.822726 
L 391.29426 275.822726 
L 391.502978 275.822726 
L 391.711594 275.822726 
L 391.920211 275.822726 
L 392.128929 275.822726 
L 392.337545 275.822726 
L 392.546161 275.822726 
L 392.75488 275.822726 
L 392.963496 275.822726 
L 393.172112 275.822726 
L 393.380729 275.822726 
L 393.589447 275.822726 
L 393.798063 275.822726 
L 394.006679 275.822726 
L 394.215398 275.822726 
" clip-path="url(#p03c69ab796)" style="fill: none; stroke-dasharray: 5.55,2.4; stroke-dashoffset: 0; stroke: #00bfbf; stroke-width: 1.5"/>
   </g>
   <g id="line2d_22">
    <path d="M 374.185278 269.884951 
L 374.393894 272.043671 
L 374.602511 273.463028 
L 374.811229 274.364294 
L 375.019845 274.974132 
L 375.228461 275.357305 
L 375.43718 275.486828 
L 375.645796 275.875397 
L 375.854412 276.010317 
L 376.063131 276.285554 
L 376.271747 276.285554 
L 376.480363 276.317935 
L 376.688979 276.334125 
L 376.897698 276.334125 
L 377.106314 276.334125 
L 377.31493 276.334125 
L 377.523648 276.334125 
L 377.732265 276.334125 
L 377.940881 276.334125 
L 378.149599 276.334125 
L 378.358215 276.334125 
L 378.566832 276.334125 
L 378.775448 276.334125 
L 378.984166 276.334125 
L 379.192782 276.334125 
L 379.401399 276.334125 
L 379.610117 276.334125 
L 379.818733 276.334125 
L 380.027349 276.334125 
L 380.236068 276.334125 
L 380.444684 276.317935 
L 380.6533 276.166824 
L 380.861917 275.923968 
L 381.070635 275.627144 
L 381.279251 275.16302 
L 381.487867 274.456039 
L 381.696586 273.549377 
L 381.905202 271.773831 
L 382.113818 269.41543 
L 382.322537 265.497355 
L 382.531153 260.726585 
L 382.739769 256.333592 
L 382.948385 253.036148 
L 383.157104 250.834255 
L 383.36572 249.533626 
L 383.574336 248.335537 
L 383.783054 247.148242 
L 383.991671 246.338722 
L 384.200287 246.144437 
L 384.409005 248.152046 
L 384.617621 251.46568 
L 384.826238 255.216455 
L 385.034854 258.071361 
L 385.243572 260.208493 
L 385.452188 261.61166 
L 385.660805 263.376413 
L 385.869523 265.400212 
L 386.078139 267.720835 
L 386.286755 270.133204 
L 386.495474 271.935735 
L 386.70409 273.355093 
L 386.912706 274.089057 
L 387.121323 274.725879 
L 387.330041 274.941751 
L 387.538657 275.303337 
L 387.747273 275.351908 
L 387.955992 275.384289 
L 388.164608 275.648732 
L 388.373224 275.729684 
L 388.581943 275.83762 
L 388.790559 275.891588 
L 388.999175 275.929365 
L 389.207791 275.977936 
L 389.41651 276.12365 
L 389.625126 276.12365 
L 389.833742 276.096666 
L 390.04246 276.134443 
L 390.251077 276.134443 
L 390.459693 276.193808 
L 390.668411 276.010317 
L 390.877027 275.98873 
L 391.085644 276.010317 
L 391.29426 276.010317 
L 391.502978 275.896984 
L 391.711594 275.643335 
L 391.920211 275.681112 
L 392.128929 275.681112 
L 392.337545 275.681112 
L 392.546161 275.578573 
L 392.75488 275.637938 
L 392.963496 275.659525 
L 393.172112 275.616351 
L 393.380729 275.492225 
L 393.589447 275.56778 
L 393.798063 275.772858 
L 394.006679 275.85381 
L 394.215398 275.73508 
" clip-path="url(#p03c69ab796)" style="fill: none; stroke: #bf00bf; stroke-width: 1.5; stroke-linecap: square"/>
   </g>
   <g id="patch_3">
    <path d="M 53.328125 288.430125 
L 53.328125 22.318125 
" style="fill: none; stroke: #000000; stroke-width: 0.8; stroke-linejoin: miter; stroke-linecap: square"/>
   </g>
   <g id="patch_4">
    <path d="M 410.448125 288.430125 
L 410.448125 22.318125 
" style="fill: none; stroke: #000000; stroke-width: 0.8; stroke-linejoin: miter; stroke-linecap: square"/>
   </g>
   <g id="patch_5">
    <path d="M 53.328125 288.430125 
L 410.448125 288.430125 
" style="fill: none; stroke: #000000; stroke-width: 0.8; stroke-linejoin: miter; stroke-linecap: square"/>
   </g>
   <g id="patch_6">
    <path d="M 53.328125 22.318125 
L 410.448125 22.318125 
" style="fill: none; stroke: #000000; stroke-width: 0.8; stroke-linejoin: miter; stroke-linecap: square"/>
   </g>
   <g id="text_15">
    <!-- Scherrer Calculation -->
    <g transform="translate(171.055625 16.318125) scale(0.12 -0.12)">
     <defs>
      <path id="DejaVuSans-53" d="M 3425 4513 
L 3425 3897 
Q 3066 4069 2747 4153 
Q 2428 4238 2131 4238 
Q 1616 4238 1336 4038 
Q 1056 3838 1056 3469 
Q 1056 3159 1242 3001 
Q 1428 2844 1947 2747 
L 2328 2669 
Q 3034 2534 3370 2195 
Q 3706 1856 3706 1288 
Q 3706 609 3251 259 
Q 2797 -91 1919 -91 
Q 1588 -91 1214 -16 
Q 841 59 441 206 
L 441 856 
Q 825 641 1194 531 
Q 1563 422 1919 422 
Q 2459 422 2753 634 
Q 3047 847 3047 1241 
Q 3047 1584 2836 1778 
Q 2625 1972 2144 2069 
L 1759 2144 
Q 1053 2284 737 2584 
Q 422 2884 422 3419 
Q 422 4038 858 4394 
Q 1294 4750 2059 4750 
Q 2388 4750 2728 4690 
Q 3069 4631 3425 4513 
z
" transform="scale(0.015625)"/>
      <path id="DejaVuSans-63" d="M 3122 3366 
L 3122 2828 
Q 2878 2963 2633 3030 
Q 2388 3097 2138 3097 
Q 1578 3097 1268 2742 
Q 959 2388 959 1747 
Q 959 1106 1268 751 
Q 1578 397 2138 397 
Q 2388 397 2633 464 
Q 2878 531 3122 666 
L 3122 134 
Q 2881 22 2623 -34 
Q 2366 -91 2075 -91 
Q 1284 -91 818 406 
Q 353 903 353 1747 
Q 353 2603 823 3093 
Q 1294 3584 2113 3584 
Q 2378 3584 2631 3529 
Q 2884 3475 3122 3366 
z
" transform="scale(0.015625)"/>
      <path id="DejaVuSans-68" d="M 3513 2113 
L 3513 0 
L 2938 0 
L 2938 2094 
Q 2938 2591 2744 2837 
Q 2550 3084 2163 3084 
Q 1697 3084 1428 2787 
Q 1159 2491 1159 1978 
L 1159 0 
L 581 0 
L 581 4863 
L 1159 4863 
L 1159 2956 
Q 1366 3272 1645 3428 
Q 1925 3584 2291 3584 
Q 2894 3584 3203 3211 
Q 3513 2838 3513 2113 
z
" transform="scale(0.015625)"/>
      <path id="DejaVuSans-43" d="M 4122 4306 
L 4122 3641 
Q 3803 3938 3442 4084 
Q 3081 4231 2675 4231 
Q 1875 4231 1450 3742 
Q 1025 3253 1025 2328 
Q 1025 1406 1450 917 
Q 1875 428 2675 428 
Q 3081 428 3442 575 
Q 3803 722 4122 1019 
L 4122 359 
Q 3791 134 3420 21 
Q 3050 -91 2638 -91 
Q 1578 -91 968 557 
Q 359 1206 359 2328 
Q 359 3453 968 4101 
Q 1578 4750 2638 4750 
Q 3056 4750 3426 4639 
Q 3797 4528 4122 4306 
z
" transform="scale(0.015625)"/>
      <path id="DejaVuSans-6c" d="M 603 4863 
L 1178 4863 
L 1178 0 
L 603 0 
L 603 4863 
z
" transform="scale(0.015625)"/>
      <path id="DejaVuSans-6f" d="M 1959 3097 
Q 1497 3097 1228 2736 
Q 959 2375 959 1747 
Q 959 1119 1226 758 
Q 1494 397 1959 397 
Q 2419 397 2687 759 
Q 2956 1122 2956 1747 
Q 2956 2369 2687 2733 
Q 2419 3097 1959 3097 
z
M 1959 3584 
Q 2709 3584 3137 3096 
Q 3566 2609 3566 1747 
Q 3566 888 3137 398 
Q 2709 -91 1959 -91 
Q 1206 -91 779 398 
Q 353 888 353 1747 
Q 353 2609 779 3096 
Q 1206 3584 1959 3584 
z
" transform="scale(0.015625)"/>
     </defs>
     <use xlink:href="#DejaVuSans-53"/>
     <use xlink:href="#DejaVuSans-63" transform="translate(63.476562 0)"/>
     <use xlink:href="#DejaVuSans-68" transform="translate(118.457031 0)"/>
     <use xlink:href="#DejaVuSans-65" transform="translate(181.835938 0)"/>
     <use xlink:href="#DejaVuSans-72" transform="translate(243.359375 0)"/>
     <use xlink:href="#DejaVuSans-72" transform="translate(282.722656 0)"/>
     <use xlink:href="#DejaVuSans-65" transform="translate(321.585938 0)"/>
     <use xlink:href="#DejaVuSans-72" transform="translate(383.109375 0)"/>
     <use xlink:href="#DejaVuSans-20" transform="translate(424.222656 0)"/>
     <use xlink:href="#DejaVuSans-43" transform="translate(456.009766 0)"/>
     <use xlink:href="#DejaVuSans-61" transform="translate(525.833984 0)"/>
     <use xlink:href="#DejaVuSans-6c" transform="translate(587.113281 0)"/>
     <use xlink:href="#DejaVuSans-63" transform="translate(614.896484 0)"/>
     <use xlink:href="#DejaVuSans-75" transform="translate(669.876953 0)"/>
     <use xlink:href="#DejaVuSans-6c" transform="translate(733.255859 0)"/>
     <use xlink:href="#DejaVuSans-61" transform="translate(761.039062 0)"/>
     <use xlink:href="#DejaVuSans-74" transform="translate(822.318359 0)"/>
     <use xlink:href="#DejaVuSans-69" transform="translate(861.527344 0)"/>
     <use xlink:href="#DejaVuSans-6f" transform="translate(889.310547 0)"/>
     <use xlink:href="#DejaVuSans-6e" transform="translate(950.492188 0)"/>
    </g>
   </g>
  </g>
 </g>
 <defs>
  <clipPath id="p03c69ab796">
   <rect x="53.328125" y="22.318125" width="357.12" height="266.112"/>
  </clipPath>
 </defs>
</svg>
